<svg width="24" height="24" viewBox="0 0 24 24" fill="none" xmlns="http://www.w3.org/2000/svg">
<path d="M15.5915 14.384L15.8576 13.9838C16.979 12.3027 19.0867 11.5799 21.0038 12.2191" stroke="#fff" stroke-width="1.5" stroke-linecap="round" stroke-linejoin="round"/>
<path d="M10.0642 12.7933L11.2647 6.80684L12.5752 7.46211C13.0619 7.70506 13.6532 7.5492 13.9568 7.09796L15.1013 5.38024C15.387 4.95092 15.3305 4.37971 14.9662 4.01467L13.5256 2.57407C12.8577 1.90597 11.7905 1.85738 11.0646 2.46203C7.65605 5.30221 5.10691 9.03654 3.70355 13.2455L3.1033 15.0323C2.80388 15.9349 3.12857 16.9272 3.90363 17.4783L5.43527 18.5727C8.39103 20.6845 12.2188 21.1456 15.5915 19.7962L16.6739 21.9611" stroke="#fff" stroke-width="1.5" stroke-linecap="round" stroke-linejoin="round"/>
<path d="M15.5915 13.3005C13.625 11.9899 11.0633 11.9899 9.09679 13.3005" stroke="#fff" stroke-width="1.5" stroke-linecap="round" stroke-linejoin="round"/>
</svg>
