<svg width="24" height="24" viewBox="0 0 24 24" fill="none" xmlns="http://www.w3.org/2000/svg">
<path d="M10.0001 10V11" stroke="#323232" stroke-width="1.5" stroke-linecap="round" stroke-linejoin="round"/>
<path d="M13.9999 10V11" stroke="#323232" stroke-width="1.5" stroke-linecap="round" stroke-linejoin="round"/>
<path d="M7.13793 19.5649C11.0125 22.0578 16.1432 21.2285 19.0351 17.6419C21.9269 14.0553 21.6494 8.8654 18.3916 5.60758C15.1338 2.34976 9.94392 2.07226 6.35729 4.96411C2.77066 7.85597 1.94135 12.9867 4.43427 16.8612" stroke="#323232" stroke-width="1.5" stroke-linecap="round" stroke-linejoin="round"/>
<path d="M4.43428 16.8613L4.0074 19.4164C3.98078 19.5757 4.03278 19.7381 4.147 19.8523C4.26123 19.9665 4.4236 20.0185 4.58293 19.9919L7.1378 19.5649" stroke="#323232" stroke-width="1.5" stroke-linecap="round" stroke-linejoin="round"/>
<path d="M9.00015 15.19C9.85761 14.5258 10.9155 14.1732 12 14.19C13.0845 14.1732 14.1424 14.5258 14.9999 15.19" stroke="#323232" stroke-width="1.5" stroke-linecap="round" stroke-linejoin="round"/>
</svg>
